<svg width="133" height="87" viewBox="0 0 133 87" fill="none" xmlns="http://www.w3.org/2000/svg">
<g filter="url(#filter0_d_531_6)">
<path d="M2 11V56.913C2 60.779 5.134 63.913 8.99999 63.913H57.2981C60.2458 63.913 62.8776 65.7596 63.8805 68.5313L68.7539 82L74.4864 68.2238C75.5725 65.6136 78.1221 63.913 80.9492 63.913H120C123.866 63.913 127 60.779 127 56.913V11C127 7.13401 123.866 4 120 4H9C5.13401 4 2 7.134 2 11Z" fill="#FDF9F6"/>
<path d="M2 11V56.913C2 60.779 5.134 63.913 8.99999 63.913H57.2981C60.2458 63.913 62.8776 65.7596 63.8805 68.5313L68.7539 82L74.4864 68.2238C75.5725 65.6136 78.1221 63.913 80.9492 63.913H120C123.866 63.913 127 60.779 127 56.913V11C127 7.13401 123.866 4 120 4H9C5.13401 4 2 7.134 2 11Z" stroke="#B4ADA9"/>
</g>
<defs>
<filter id="filter0_d_531_6" x="0.5" y="0.5" width="132" height="85.8796" filterUnits="userSpaceOnUse" color-interpolation-filters="sRGB">
<feFlood flood-opacity="0" result="BackgroundImageFix"/>
<feColorMatrix in="SourceAlpha" type="matrix" values="0 0 0 0 0 0 0 0 0 0 0 0 0 0 0 0 0 0 127 0" result="hardAlpha"/>
<feOffset dx="2"/>
<feGaussianBlur stdDeviation="1.5"/>
<feComposite in2="hardAlpha" operator="out"/>
<feColorMatrix type="matrix" values="0 0 0 0 0 0 0 0 0 0 0 0 0 0 0 0 0 0 0.25 0"/>
<feBlend mode="normal" in2="BackgroundImageFix" result="effect1_dropShadow_531_6"/>
<feBlend mode="normal" in="SourceGraphic" in2="effect1_dropShadow_531_6" result="shape"/>
</filter>
</defs>
</svg>
